<svg width="235" height="202" viewBox="0 0 235 202" fill="none" xmlns="http://www.w3.org/2000/svg">
<path d="M192.176 191.026L206.882 164.87H237.642L253.589 192.405L238.53 217.406L207.29 216.934L192.176 191.026Z" fill="white" stroke="#E31337"/>
<path d="M159.302 192.38H189.521L204.633 218.59L189.521 244.75H159.549L144.515 218.568L159.302 192.38Z" fill="white" stroke="#E31337"/>
<path d="M190.901 138.89L205.643 164.371L190.821 190.13H160.329L146.542 164.379L161.209 138.89H190.901Z" fill="white" stroke="#E31337"/>
<path d="M141.381 166.6L155.486 191.036L141.865 215.69H112.302L98.3958 191.034L112.538 166.6H141.381Z" fill="#FEFEFE" stroke="#E31337"/>
<path d="M93.7253 194.58L108.643 219.707L94.0171 245.78H64.5585L49.4989 219.703L64.3353 194.58H93.7253Z" fill="white" stroke="#E31337"/>
<path d="M94.3427 140.66L109.181 166.101L94.1718 191.99H64.7697L49.9364 166.101L64.5592 140.66H94.3427Z" fill="white" stroke="#E31337"/>
<path d="M45.9885 164.79L60.8544 191.029L45.9002 217.12H15.7674L0.578087 191.029L15.7682 164.79H45.9885Z" fill="white" stroke="#E31337"/>
<path d="M237.645 109.65L253.449 136.32L238.236 162.078L206.932 161.813L192.176 135.841L207.2 109.65H237.645Z" fill="white" stroke="#E31337"/>
<path d="M239.369 55.2063L254.073 80.7205L239.451 106.16H207.21L193.654 80.7341L209.141 54.8039L239.369 55.2063Z" fill="white" stroke="#E31337"/>
<path d="M190.487 82.0302L205.046 108.039L190.17 134.447L158.744 134.093L144.106 108.046L159.386 82.0302H190.487Z" fill="#FEFEFE" stroke="#E31337"/>
<path d="M238.796 0.500076L252.79 25.5774L237.671 50.0801L209.152 50.0801L195.085 25.0425L209.15 0.500076L238.796 0.500076Z" fill="white" stroke="#E31337"/>
<path d="M193.324 26.9217L207.638 53.1652L192.729 79.4102H162.221L147.345 53.1715L162.301 27.0787L193.324 26.9217Z" fill="white" stroke="#E31337"/>
<path d="M141.38 111.21L155.488 135.868L142.221 160.62H112.54L98.3961 135.861L112.54 111.21H141.38Z" fill="white" stroke="#E31337"/>
<path d="M142.234 55.2101L157.16 80.5614L142.235 106.156L112.542 105.764L98.1255 80.5594L112.541 55.2101L142.234 55.2101Z" fill="#FEFEFE" stroke="#E31337"/>
</svg>
