<svg width="220" height="208" viewBox="0 0 220 208" fill="none" xmlns="http://www.w3.org/2000/svg">
<path d="M28.2546 192.176L54.41 206.882L54.41 237.642L26.875 253.589L1.87428 238.53L2.34568 207.29L28.2546 192.176Z" fill="white" stroke="#E31337"/>
<path d="M26.9 159.302L26.9 189.521L0.690264 204.633L-25.47 189.521L-25.47 159.549L0.712111 144.515L26.9 159.302Z" fill="white" stroke="#E31337"/>
<path d="M80.39 190.901L54.9093 205.642L29.15 190.821L29.15 160.329L54.9013 146.542L80.39 161.209V190.901Z" fill="white" stroke="#E31337"/>
<path d="M52.68 141.381L28.2446 155.486L3.58997 141.865L3.58997 112.302L28.2467 98.3959L52.68 112.538L52.68 141.381Z" fill="#FEFEFE" stroke="#E31337"/>
<path d="M24.7 93.7251L-0.427086 108.642L-26.5 94.0169L-26.5 64.5583L-0.422819 49.4987L24.7 64.3351L24.7 93.7251Z" fill="white" stroke="#E31337"/>
<path d="M78.62 94.3426L53.1793 109.181L27.29 94.1717L27.29 64.7695L53.1796 49.9363L78.62 64.5591V94.3426Z" fill="white" stroke="#E31337"/>
<path d="M54.49 45.9883L28.2515 60.8542L2.16003 45.9L2.16003 15.7672L28.2507 0.577843L54.49 15.768L54.49 45.9883Z" fill="white" stroke="#E31337"/>
<path d="M109.63 237.645L82.9596 253.449L57.2024 238.236L57.4676 206.932L83.4388 192.176L109.63 207.199V237.645Z" fill="white" stroke="#E31337"/>
<path d="M164.074 239.369L138.56 254.073L113.12 239.451V207.21L138.546 193.654L164.476 209.141L164.074 239.369Z" fill="white" stroke="#E31337"/>
<path d="M137.25 190.487L111.241 205.047L84.8333 190.17L85.1867 158.745L111.235 144.107L137.25 159.386V190.487Z" fill="#FEFEFE" stroke="#E31337"/>
<path d="M218.78 238.797L193.703 252.79L169.2 237.671V209.153L194.238 195.085L218.78 209.15V238.797Z" fill="white" stroke="#E31337"/>
<path d="M192.358 193.324L166.115 207.638L139.87 192.729V162.221L166.109 147.345L192.201 162.301L192.358 193.324Z" fill="white" stroke="#E31337"/>
<path d="M108.07 141.38L83.4121 155.489L58.66 142.221L58.66 112.54L83.4195 98.3962L108.07 112.54V141.38Z" fill="white" stroke="#E31337"/>
<path d="M164.07 142.234L138.719 157.16L113.124 142.235L113.516 112.542L138.721 98.1253L164.07 112.541V142.234Z" fill="#FEFEFE" stroke="#E31337"/>
</svg>
