<svg width="244" height="240" viewBox="0 0 244 240" fill="none" xmlns="http://www.w3.org/2000/svg">
<path d="M191.025 47.4738L164.87 32.7675V2.0082L192.405 -13.9393L217.406 1.11993L216.934 32.3603L191.025 47.4738Z" fill="white" stroke="black"/>
<path d="M192.38 80.3481V50.1288L218.59 35.0172L244.75 50.1285V80.1005L218.568 95.1346L192.38 80.3481Z" fill="white" stroke="black"/>
<path d="M138.89 48.7486L164.371 34.0074L190.13 48.8293V79.3207L164.379 93.1083L138.89 78.441V48.7486Z" fill="white" stroke="black"/>
<path d="M166.6 98.2686L191.035 84.1641L215.69 97.7848V127.348L191.033 141.254L166.6 127.112V98.2686Z" fill="#FEFEFE" stroke="black"/>
<path d="M194.58 145.925L219.707 131.007L245.78 145.633V175.091L219.703 190.151L194.58 175.315V145.925Z" fill="white" stroke="black"/>
<path d="M140.66 145.307L166.101 130.469L191.99 145.478V174.88L166.1 189.714L140.66 175.091V145.307Z" fill="white" stroke="black"/>
<path d="M164.79 193.661L191.029 178.795L217.12 193.75V223.882L191.029 239.072L164.79 223.882V193.661Z" fill="white" stroke="black"/>
<path d="M109.65 2.00503L136.32 -13.7989L162.078 1.41407L161.812 32.7177L135.841 47.4744L109.65 32.4505V2.00503Z" fill="white" stroke="black"/>
<path d="M55.2062 0.281142L80.7204 -14.4231L106.16 0.199316V32.44L80.734 45.9959L54.8038 30.5085L55.2062 0.281142Z" fill="white" stroke="black"/>
<path d="M82.03 49.1631L108.039 34.6035L134.447 49.4804L134.093 80.9056L108.046 95.5434L82.03 80.2638V49.1631Z" fill="#FEFEFE" stroke="black"/>
<path d="M0.500015 0.853597L25.5773 -13.1403L50.08 1.97903V30.4974L25.0424 44.5651L0.500015 30.5003V0.853597Z" fill="white" stroke="black"/>
<path d="M26.9215 46.3259L53.1651 32.0122L79.41 46.921V77.4286L53.1714 92.3044L27.0786 77.3494L26.9215 46.3259Z" fill="white" stroke="black"/>
<path d="M111.21 98.2698L135.868 84.1614L160.62 97.4291V127.11L135.861 141.254L111.21 127.11V98.2698Z" fill="white" stroke="black"/>
<path d="M55.21 97.416L80.5612 82.4897L106.156 97.4152L105.764 127.108L80.5593 141.525L55.21 127.109V97.416Z" fill="#FEFEFE" stroke="black"/>
</svg>
